<svg xmlns="http://www.w3.org/2000/svg" xmlns:xlink="http://www.w3.org/1999/xlink" width="170" zoomAndPan="magnify" viewBox="0 0 127.5 30.000001" height="40" preserveAspectRatio="xMidYMid meet" version="1.0"><defs><g/></defs><g fill="#ffffff" fill-opacity="1"><g transform="translate(33.298061, 13.238576)"><g><path d="M 3.8125 -0.140625 L 4 -0.140625 L 4 0 L 0.859375 0 L 0.859375 -0.140625 L 1.046875 -0.140625 C 1.296875 -0.140625 1.507812 -0.226562 1.6875 -0.40625 C 1.863281 -0.582031 1.953125 -0.796875 1.953125 -1.046875 L 1.953125 -8.984375 C 1.953125 -9.234375 1.863281 -9.441406 1.6875 -9.609375 C 1.507812 -9.785156 1.296875 -9.875 1.046875 -9.875 L 0.859375 -9.875 L 0.859375 -10.015625 L 4 -10.015625 L 4 -9.875 L 3.8125 -9.875 C 3.5625 -9.875 3.347656 -9.785156 3.171875 -9.609375 C 2.992188 -9.441406 2.898438 -9.234375 2.890625 -8.984375 L 2.890625 -1.046875 C 2.890625 -0.796875 2.976562 -0.582031 3.15625 -0.40625 C 3.34375 -0.226562 3.5625 -0.140625 3.8125 -0.140625 Z M 13.71875 2.140625 L 13.71875 2.296875 C 13.363281 2.378906 13.003906 2.421875 12.640625 2.421875 C 11.078125 2.421875 9.5625 1.640625 8.09375 0.078125 L 3.34375 -4.984375 L 6.734375 -9.21875 C 6.804688 -9.3125 6.84375 -9.394531 6.84375 -9.46875 C 6.84375 -9.550781 6.828125 -9.617188 6.796875 -9.671875 C 6.722656 -9.816406 6.585938 -9.890625 6.390625 -9.890625 L 6.234375 -9.890625 L 6.234375 -10.015625 L 9.265625 -10.015625 L 9.265625 -9.890625 L 9.203125 -9.890625 C 8.578125 -9.890625 8.0625 -9.664062 7.65625 -9.21875 L 4.328125 -5.375 L 9.1875 -0.171875 C 9.820312 0.503906 10.53125 1.054688 11.3125 1.484375 C 12.101562 1.921875 12.90625 2.140625 13.71875 2.140625 Z M 13.71875 2.140625 "/></g></g></g><g fill="#ffffff" fill-opacity="1"><g transform="translate(42.876535, 13.238576)"><g><path d="M 10.515625 -9.875 L 10.296875 -9.875 C 10.085938 -9.875 9.910156 -9.804688 9.765625 -9.671875 C 9.617188 -9.546875 9.539062 -9.390625 9.53125 -9.203125 L 9.53125 -3.53125 C 9.53125 -2.414062 9.175781 -1.515625 8.46875 -0.828125 C 7.757812 -0.140625 6.816406 0.203125 5.640625 0.203125 C 4.472656 0.203125 3.523438 -0.132812 2.796875 -0.8125 C 2.066406 -1.5 1.703125 -2.398438 1.703125 -3.515625 L 1.703125 -9.15625 C 1.703125 -9.445312 1.578125 -9.660156 1.328125 -9.796875 C 1.210938 -9.847656 1.082031 -9.875 0.9375 -9.875 L 0.71875 -9.875 L 0.71875 -10.015625 L 3.625 -10.015625 L 3.625 -9.875 L 3.390625 -9.875 C 3.179688 -9.875 3.003906 -9.804688 2.859375 -9.671875 C 2.710938 -9.546875 2.640625 -9.382812 2.640625 -9.1875 L 2.640625 -3.71875 C 2.640625 -2.675781 2.914062 -1.835938 3.46875 -1.203125 C 4.03125 -0.566406 4.773438 -0.25 5.703125 -0.25 C 6.640625 -0.25 7.398438 -0.550781 7.984375 -1.15625 C 8.566406 -1.757812 8.859375 -2.550781 8.859375 -3.53125 L 8.859375 -9.1875 C 8.847656 -9.382812 8.769531 -9.546875 8.625 -9.671875 C 8.488281 -9.804688 8.3125 -9.875 8.09375 -9.875 L 7.875 -9.875 L 7.875 -10.015625 L 10.515625 -10.015625 Z M 10.515625 -9.875 "/></g></g></g><g fill="#ffffff" fill-opacity="1"><g transform="translate(54.115849, 13.238576)"><g><path d="M 0.875 -0.59375 C 0.84375 -0.71875 0.828125 -0.972656 0.828125 -1.359375 C 0.828125 -1.742188 0.898438 -2.148438 1.046875 -2.578125 L 1.171875 -2.578125 C 1.160156 -2.472656 1.15625 -2.367188 1.15625 -2.265625 C 1.15625 -1.679688 1.332031 -1.195312 1.6875 -0.8125 C 2.039062 -0.425781 2.507812 -0.234375 3.09375 -0.234375 C 3.695312 -0.234375 4.191406 -0.410156 4.578125 -0.765625 C 4.960938 -1.128906 5.15625 -1.585938 5.15625 -2.140625 C 5.15625 -2.691406 4.96875 -3.140625 4.59375 -3.484375 L 1.84375 -6.03125 C 1.332031 -6.5 1.078125 -7.070312 1.078125 -7.75 C 1.078125 -8.4375 1.300781 -9.019531 1.75 -9.5 C 2.207031 -9.976562 2.820312 -10.21875 3.59375 -10.21875 C 3.957031 -10.21875 4.367188 -10.171875 4.828125 -10.078125 L 5.375 -10.078125 L 5.375 -8.3125 L 5.25 -8.3125 C 5.25 -8.757812 5.09375 -9.117188 4.78125 -9.390625 C 4.476562 -9.660156 4.082031 -9.796875 3.59375 -9.796875 C 3.101562 -9.796875 2.691406 -9.628906 2.359375 -9.296875 C 2.035156 -8.972656 1.875 -8.566406 1.875 -8.078125 C 1.875 -7.597656 2.066406 -7.179688 2.453125 -6.828125 L 5.265625 -4.21875 C 5.742188 -3.78125 5.984375 -3.179688 5.984375 -2.421875 C 5.984375 -1.660156 5.738281 -1.03125 5.25 -0.53125 C 4.757812 -0.0390625 4.113281 0.203125 3.3125 0.203125 C 2.882812 0.203125 2.4375 0.132812 1.96875 0 C 1.5 -0.125 1.132812 -0.320312 0.875 -0.59375 Z M 0.875 -0.59375 "/></g></g></g><g fill="#ffffff" fill-opacity="1"><g transform="translate(60.931029, 13.238576)"><g><path d="M 7.828125 -0.140625 C 8.078125 -0.140625 8.289062 -0.226562 8.46875 -0.40625 C 8.644531 -0.582031 8.738281 -0.789062 8.75 -1.03125 L 8.75 -4.734375 L 2.890625 -4.734375 L 2.890625 -1.03125 C 2.890625 -0.78125 2.976562 -0.566406 3.15625 -0.390625 C 3.34375 -0.222656 3.5625 -0.140625 3.8125 -0.140625 L 4 -0.140625 L 4 0 L 0.859375 0 L 0.859375 -0.140625 L 1.046875 -0.140625 C 1.296875 -0.140625 1.507812 -0.222656 1.6875 -0.390625 C 1.863281 -0.566406 1.953125 -0.78125 1.953125 -1.03125 L 1.953125 -8.984375 C 1.953125 -9.234375 1.863281 -9.441406 1.6875 -9.609375 C 1.507812 -9.785156 1.296875 -9.875 1.046875 -9.875 L 0.859375 -9.875 L 0.859375 -10.015625 L 4 -10.015625 L 4 -9.875 L 3.8125 -9.875 C 3.5625 -9.875 3.347656 -9.785156 3.171875 -9.609375 C 2.992188 -9.441406 2.898438 -9.234375 2.890625 -8.984375 L 2.890625 -5.171875 L 8.75 -5.171875 L 8.75 -8.984375 C 8.738281 -9.328125 8.582031 -9.585938 8.28125 -9.765625 C 8.144531 -9.835938 7.992188 -9.875 7.828125 -9.875 L 7.640625 -9.875 L 7.640625 -10.015625 L 10.78125 -10.015625 L 10.78125 -9.875 L 10.59375 -9.875 C 10.34375 -9.875 10.128906 -9.785156 9.953125 -9.609375 C 9.773438 -9.429688 9.679688 -9.21875 9.671875 -8.96875 L 9.671875 -1.03125 C 9.679688 -0.78125 9.773438 -0.566406 9.953125 -0.390625 C 10.128906 -0.222656 10.34375 -0.140625 10.59375 -0.140625 L 10.78125 -0.140625 L 10.78125 0 L 7.640625 0 L 7.640625 -0.140625 Z M 7.828125 -0.140625 "/></g></g></g><g fill="#ffffff" fill-opacity="1"><g transform="translate(53.728027, 24.038711)"><g><path d="M 1.484375 -3.3125 C 1.046875 -2.75 0.828125 -2.140625 0.828125 -1.484375 C 0.828125 -0.703125 1.160156 -0.09375 1.828125 0.34375 C 2.203125 0.59375 2.632812 0.71875 3.125 0.71875 C 3.613281 0.71875 4.035156 0.625 4.390625 0.4375 C 5.066406 0.0820312 5.445312 -0.503906 5.53125 -1.328125 C 5.53125 -1.378906 5.53125 -1.4375 5.53125 -1.5 C 5.53125 -1.800781 5.445312 -2.128906 5.28125 -2.484375 C 5.113281 -2.847656 4.835938 -3.179688 4.453125 -3.484375 L 2.203125 -5.25 C 1.710938 -5.632812 1.46875 -6.128906 1.46875 -6.734375 C 1.46875 -7.335938 1.660156 -7.847656 2.046875 -8.265625 C 2.441406 -8.691406 2.972656 -8.90625 3.640625 -8.90625 C 3.972656 -8.90625 4.332031 -8.863281 4.71875 -8.78125 L 5.21875 -8.78125 L 5.25 -7.25 L 5.125 -7.25 C 5.113281 -7.644531 4.96875 -7.957031 4.6875 -8.1875 C 4.414062 -8.414062 4.066406 -8.53125 3.640625 -8.53125 C 3.222656 -8.53125 2.875 -8.390625 2.59375 -8.109375 C 2.3125 -7.828125 2.171875 -7.46875 2.171875 -7.03125 C 2.171875 -6.601562 2.351562 -6.242188 2.71875 -5.953125 L 5.03125 -4.125 C 5.9375 -3.40625 6.390625 -2.535156 6.390625 -1.515625 C 6.390625 -0.742188 6.085938 -0.0820312 5.484375 0.46875 C 4.960938 0.9375 4.265625 1.171875 3.390625 1.171875 C 2.859375 1.171875 2.382812 1.070312 1.96875 0.875 C 1.1875 0.507812 0.71875 -0.113281 0.5625 -1 C 0.539062 -1.132812 0.53125 -1.300781 0.53125 -1.5 C 0.53125 -1.707031 0.585938 -1.988281 0.703125 -2.34375 C 0.816406 -2.695312 1.039062 -3.050781 1.375 -3.40625 Z M 1.484375 -3.3125 "/></g></g></g><g fill="#ffffff" fill-opacity="1"><g transform="translate(61.884533, 24.038711)"><g><path d="M 9.09375 -0.125 L 9.234375 -0.125 L 9.234375 0 L 6.515625 0 L 6.515625 -0.125 L 6.6875 -0.125 C 6.894531 -0.125 7.070312 -0.195312 7.21875 -0.34375 C 7.375 -0.488281 7.460938 -0.671875 7.484375 -0.890625 L 7.484375 -4.125 L 2.65625 -4.125 L 2.65625 -0.875 C 2.65625 0.289062 2.375 1.070312 1.8125 1.46875 C 1.550781 1.65625 1.21875 1.789062 0.8125 1.875 L 0.75 1.765625 C 1.125 1.566406 1.398438 1.257812 1.578125 0.84375 C 1.753906 0.425781 1.84375 -0.144531 1.84375 -0.875 L 1.84375 -7.828125 C 1.84375 -8.046875 1.765625 -8.226562 1.609375 -8.375 C 1.453125 -8.53125 1.265625 -8.609375 1.046875 -8.609375 L 0.890625 -8.609375 L 0.890625 -8.734375 L 3.609375 -8.734375 L 3.609375 -8.609375 L 3.453125 -8.609375 C 3.234375 -8.609375 3.046875 -8.53125 2.890625 -8.375 C 2.742188 -8.226562 2.664062 -8.046875 2.65625 -7.828125 L 2.65625 -4.5 L 7.484375 -4.5 L 7.484375 -7.609375 C 7.492188 -8.671875 7.726562 -9.410156 8.1875 -9.828125 C 8.46875 -10.078125 8.851562 -10.253906 9.34375 -10.359375 L 9.40625 -10.25 C 9.03125 -10.050781 8.75 -9.742188 8.5625 -9.328125 C 8.382812 -8.910156 8.296875 -8.335938 8.296875 -7.609375 L 8.296875 -0.90625 C 8.296875 -0.695312 8.367188 -0.515625 8.515625 -0.359375 C 8.671875 -0.203125 8.863281 -0.125 9.09375 -0.125 Z M 9.09375 -0.125 "/></g></g></g><g fill="#ffffff" fill-opacity="1"><g transform="translate(73.333573, 24.038711)"><g><path d="M 1.484375 -9.15625 C 2.023438 -9.375 2.546875 -9.484375 3.046875 -9.484375 C 3.460938 -9.484375 3.890625 -9.332031 4.328125 -9.03125 C 4.566406 -8.863281 4.835938 -8.539062 5.140625 -8.0625 C 5.335938 -7.726562 5.59375 -7.125 5.90625 -6.25 L 7.421875 -1.9375 C 7.773438 -0.96875 8.128906 -0.203125 8.484375 0.359375 C 8.847656 0.929688 9.175781 1.359375 9.46875 1.640625 C 9.769531 1.929688 10.082031 2.132812 10.40625 2.25 C 10.738281 2.375 11.007812 2.4375 11.21875 2.4375 C 11.425781 2.4375 11.613281 2.414062 11.78125 2.375 L 11.796875 2.5 C 11.398438 2.632812 11.007812 2.703125 10.625 2.703125 C 10.238281 2.703125 9.851562 2.601562 9.46875 2.40625 C 9.09375 2.21875 8.738281 1.945312 8.40625 1.59375 C 7.6875 0.875 7.082031 -0.222656 6.59375 -1.703125 L 6.09375 -3.125 L 2.6875 -3.125 L 1.828125 -0.90625 C 1.785156 -0.8125 1.765625 -0.710938 1.765625 -0.609375 C 1.765625 -0.515625 1.804688 -0.410156 1.890625 -0.296875 C 1.972656 -0.179688 2.109375 -0.125 2.296875 -0.125 L 2.390625 -0.125 L 2.390625 0 L -0.109375 0 L -0.109375 -0.125 L 0 -0.125 C 0.195312 -0.125 0.390625 -0.179688 0.578125 -0.296875 C 0.773438 -0.421875 0.9375 -0.601562 1.0625 -0.84375 L 4.15625 -8.25 C 3.707031 -8.894531 3.148438 -9.21875 2.484375 -9.21875 C 2.179688 -9.21875 1.863281 -9.15625 1.53125 -9.03125 Z M 2.828125 -3.5 L 5.96875 -3.5 L 4.984375 -6.40625 C 4.796875 -6.96875 4.625 -7.40625 4.46875 -7.71875 Z M 2.828125 -3.5 "/></g></g></g><g fill="#ffffff" fill-opacity="1"><g transform="translate(83.522968, 24.038711)"><g><path d="M 9.09375 -0.125 L 9.234375 -0.125 L 9.234375 0 L 6.515625 0 L 6.515625 -0.125 L 6.6875 -0.125 C 6.894531 -0.125 7.070312 -0.195312 7.21875 -0.34375 C 7.375 -0.488281 7.460938 -0.671875 7.484375 -0.890625 L 7.484375 -4.125 L 2.65625 -4.125 L 2.65625 -0.875 C 2.65625 0.289062 2.375 1.070312 1.8125 1.46875 C 1.550781 1.65625 1.21875 1.789062 0.8125 1.875 L 0.75 1.765625 C 1.125 1.566406 1.398438 1.257812 1.578125 0.84375 C 1.753906 0.425781 1.84375 -0.144531 1.84375 -0.875 L 1.84375 -7.828125 C 1.84375 -8.046875 1.765625 -8.226562 1.609375 -8.375 C 1.453125 -8.53125 1.265625 -8.609375 1.046875 -8.609375 L 0.890625 -8.609375 L 0.890625 -8.734375 L 3.609375 -8.734375 L 3.609375 -8.609375 L 3.453125 -8.609375 C 3.234375 -8.609375 3.046875 -8.53125 2.890625 -8.375 C 2.742188 -8.226562 2.664062 -8.046875 2.65625 -7.828125 L 2.65625 -4.5 L 7.484375 -4.5 L 7.484375 -7.609375 C 7.492188 -8.671875 7.726562 -9.410156 8.1875 -9.828125 C 8.46875 -10.078125 8.851562 -10.253906 9.34375 -10.359375 L 9.40625 -10.25 C 9.03125 -10.050781 8.75 -9.742188 8.5625 -9.328125 C 8.382812 -8.910156 8.296875 -8.335938 8.296875 -7.609375 L 8.296875 -0.90625 C 8.296875 -0.695312 8.367188 -0.515625 8.515625 -0.359375 C 8.671875 -0.203125 8.863281 -0.125 9.09375 -0.125 Z M 9.09375 -0.125 "/></g></g></g></svg>